<mxfile host="Electron" modified="2024-08-06T03:07:02.701Z" agent="Mozilla/5.0 (Windows NT 10.0; Win64; x64) AppleWebKit/537.36 (KHTML, like Gecko) draw.io/24.0.4 Chrome/120.0.6099.109 Electron/28.1.0 Safari/537.36" etag="114IQFKAb8QufK7YhRsq" version="24.0.4" type="device">
  <diagram name="Page-1" id="jH83rPQHw8LuaXOdMIeX">
    <mxGraphModel dx="675" dy="459" grid="1" gridSize="10" guides="1" tooltips="1" connect="1" arrows="1" fold="1" page="1" pageScale="1" pageWidth="540" pageHeight="240" math="1" shadow="0">
      <root>
        <mxCell id="0" />
        <mxCell id="1" parent="0" />
        <mxCell id="7uos8TflXc6uOBZzh7lB-1" value="" style="rounded=0;whiteSpace=wrap;html=1;shadow=1;textShadow=1;" vertex="1" parent="1">
          <mxGeometry x="230" y="120" width="210" height="80" as="geometry" />
        </mxCell>
        <mxCell id="7uos8TflXc6uOBZzh7lB-11" style="edgeStyle=orthogonalEdgeStyle;rounded=0;orthogonalLoop=1;jettySize=auto;html=1;exitX=1;exitY=0.5;exitDx=0;exitDy=0;entryX=0;entryY=0.5;entryDx=0;entryDy=0;endSize=4;endArrow=block;endFill=0;fontSize=11;" edge="1" parent="1" source="7uos8TflXc6uOBZzh7lB-3" target="7uos8TflXc6uOBZzh7lB-5">
          <mxGeometry relative="1" as="geometry" />
        </mxCell>
        <mxCell id="7uos8TflXc6uOBZzh7lB-3" value="live" style="ellipse;whiteSpace=wrap;html=1;fontFamily=Comic Sans MS;fontSize=11;" vertex="1" parent="1">
          <mxGeometry x="270" y="160" width="40" height="20" as="geometry" />
        </mxCell>
        <mxCell id="7uos8TflXc6uOBZzh7lB-13" value="" style="rounded=0;orthogonalLoop=1;jettySize=auto;html=1;endSize=4;endArrow=block;endFill=0;entryX=0;entryY=0.5;entryDx=0;entryDy=0;fontSize=11;" edge="1" parent="1" source="7uos8TflXc6uOBZzh7lB-5" target="7uos8TflXc6uOBZzh7lB-6">
          <mxGeometry relative="1" as="geometry">
            <mxPoint x="380" y="150" as="targetPoint" />
          </mxGeometry>
        </mxCell>
        <mxCell id="7uos8TflXc6uOBZzh7lB-15" style="edgeStyle=orthogonalEdgeStyle;rounded=0;orthogonalLoop=1;jettySize=auto;html=1;exitX=0.5;exitY=0;exitDx=0;exitDy=0;entryX=0.5;entryY=0;entryDx=0;entryDy=0;endArrow=block;endFill=0;endSize=4;curved=1;fontSize=11;" edge="1" parent="1" source="7uos8TflXc6uOBZzh7lB-5" target="7uos8TflXc6uOBZzh7lB-6">
          <mxGeometry relative="1" as="geometry">
            <Array as="points">
              <mxPoint x="350" y="140" />
              <mxPoint x="410" y="140" />
            </Array>
          </mxGeometry>
        </mxCell>
        <mxCell id="7uos8TflXc6uOBZzh7lB-5" value="dead" style="ellipse;whiteSpace=wrap;html=1;fontFamily=Comic Sans MS;fontSize=11;" vertex="1" parent="1">
          <mxGeometry x="330" y="160" width="40" height="20" as="geometry" />
        </mxCell>
        <mxCell id="7uos8TflXc6uOBZzh7lB-6" value="error" style="ellipse;whiteSpace=wrap;html=1;fontFamily=Comic Sans MS;fontSize=11;" vertex="1" parent="1">
          <mxGeometry x="390" y="160" width="40" height="20" as="geometry" />
        </mxCell>
        <mxCell id="7uos8TflXc6uOBZzh7lB-7" value="" style="endArrow=block;html=1;rounded=0;entryX=0;entryY=0.5;entryDx=0;entryDy=0;endFill=0;endSize=4;fontSize=11;" edge="1" parent="1" target="7uos8TflXc6uOBZzh7lB-3">
          <mxGeometry width="50" height="50" relative="1" as="geometry">
            <mxPoint x="240" y="170" as="sourcePoint" />
            <mxPoint x="340" y="110" as="targetPoint" />
          </mxGeometry>
        </mxCell>
        <mxCell id="7uos8TflXc6uOBZzh7lB-8" value="&lt;font face=&quot;Comic Sans MS&quot;&gt;alloc&lt;/font&gt;" style="text;html=1;align=center;verticalAlign=middle;whiteSpace=wrap;rounded=0;" vertex="1" parent="1">
          <mxGeometry x="230" y="150" width="40" height="20" as="geometry" />
        </mxCell>
        <mxCell id="7uos8TflXc6uOBZzh7lB-9" style="edgeStyle=orthogonalEdgeStyle;rounded=0;orthogonalLoop=1;jettySize=auto;html=1;exitX=0.647;exitY=0.028;exitDx=0;exitDy=0;entryX=0.32;entryY=0.042;entryDx=0;entryDy=0;endArrow=block;endFill=0;entryPerimeter=0;exitPerimeter=0;curved=1;endSize=4;fontSize=11;" edge="1" parent="1" source="7uos8TflXc6uOBZzh7lB-3" target="7uos8TflXc6uOBZzh7lB-3">
          <mxGeometry relative="1" as="geometry">
            <Array as="points">
              <mxPoint x="296" y="140" />
              <mxPoint x="283" y="140" />
            </Array>
          </mxGeometry>
        </mxCell>
        <mxCell id="7uos8TflXc6uOBZzh7lB-10" value="&lt;font face=&quot;Comic Sans MS&quot; style=&quot;font-size: 11px;&quot;&gt;use/realloc&lt;/font&gt;" style="text;html=1;align=center;verticalAlign=middle;whiteSpace=wrap;rounded=0;fontSize=11;" vertex="1" parent="1">
          <mxGeometry x="270" y="120" width="40" height="20" as="geometry" />
        </mxCell>
        <mxCell id="7uos8TflXc6uOBZzh7lB-12" value="&lt;font face=&quot;Comic Sans MS&quot; style=&quot;font-size: 11px;&quot;&gt;free&lt;/font&gt;" style="text;html=1;align=center;verticalAlign=middle;whiteSpace=wrap;rounded=0;fontSize=11;" vertex="1" parent="1">
          <mxGeometry x="300" y="150" width="40" height="20" as="geometry" />
        </mxCell>
        <mxCell id="7uos8TflXc6uOBZzh7lB-14" value="&lt;font face=&quot;Comic Sans MS&quot; style=&quot;font-size: 11px;&quot;&gt;free&lt;/font&gt;" style="text;html=1;align=center;verticalAlign=middle;whiteSpace=wrap;rounded=0;fontSize=11;" vertex="1" parent="1">
          <mxGeometry x="360" y="150" width="40" height="20" as="geometry" />
        </mxCell>
        <mxCell id="7uos8TflXc6uOBZzh7lB-16" value="&lt;font face=&quot;Comic Sans MS&quot; style=&quot;font-size: 11px;&quot;&gt;use&lt;/font&gt;" style="text;html=1;align=center;verticalAlign=middle;whiteSpace=wrap;rounded=0;fontSize=11;" vertex="1" parent="1">
          <mxGeometry x="360" y="120" width="40" height="20" as="geometry" />
        </mxCell>
        <mxCell id="7uos8TflXc6uOBZzh7lB-17" value="Typestate Finite State Automaton (TFSA)" style="text;html=1;align=center;verticalAlign=middle;whiteSpace=wrap;rounded=0;fontFamily=Linux Libertine;" vertex="1" parent="1">
          <mxGeometry x="232" y="180" width="206" height="20" as="geometry" />
        </mxCell>
        <mxCell id="7uos8TflXc6uOBZzh7lB-18" value="" style="ellipse;whiteSpace=wrap;html=1;aspect=fixed;" vertex="1" parent="1">
          <mxGeometry x="160" y="125" width="25" height="25" as="geometry" />
        </mxCell>
        <mxCell id="7uos8TflXc6uOBZzh7lB-19" value="" style="ellipse;whiteSpace=wrap;html=1;aspect=fixed;" vertex="1" parent="1">
          <mxGeometry x="110" y="157.5" width="25" height="25" as="geometry" />
        </mxCell>
        <mxCell id="7uos8TflXc6uOBZzh7lB-20" value="" style="ellipse;whiteSpace=wrap;html=1;aspect=fixed;" vertex="1" parent="1">
          <mxGeometry x="150" y="210" width="25" height="25" as="geometry" />
        </mxCell>
        <mxCell id="7uos8TflXc6uOBZzh7lB-21" value="" style="ellipse;whiteSpace=wrap;html=1;aspect=fixed;" vertex="1" parent="1">
          <mxGeometry x="110" y="85" width="25" height="25" as="geometry" />
        </mxCell>
      </root>
    </mxGraphModel>
  </diagram>
</mxfile>
